# xmcd CD database file
#
# Track frame offsets:
#	150
#	27970
#	47938
#	68921
#	83333
#	99853
#	104985
#	120302
#	135561
#	146904
#
# Disc length: 2175 seconds
#
# Revision: 0
# Processed by: cddbd v1.5.1PL0 Copyright (c) Steve Scherf et al.
# Submitted via: CDex 1.51
#
DISCID=86087d0a
DTITLE=Paul McCartney - Motor Of Love
DYEAR=2005
DGENRE=New Age
TTITLE0=Motor Of Love
TTITLE1=The Back Seat Of My Car
TTITLE2=Rough Ride
TTITLE3=Lonely Road
TTITLE4=Helen Wheels
TTITLE5=Backwards Traveller
TTITLE6=Biker Like An Icon
TTITLE7=Driving Rain
TTITLE8=Drive My Car (Live)
TTITLE9=The Lond And Winding Road (Live)
EXTD=YEAR: 2005
EXTT0=
EXTT1=
EXTT2=
EXTT3=
EXTT4=
EXTT5=
EXTT6=
EXTT7=
EXTT8=
EXTT9=
PLAYORDER=
